<svg width="204" height="200" viewBox="0 0 204 200" fill="none" xmlns="http://www.w3.org/2000/svg">
<path d="M176 13H26C18.8203 13 13 18.8203 13 26V176C13 183.18 18.8203 189 26 189H176C183.18 189 189 183.18 189 176V26C189 18.8203 183.18 13 176 13Z" fill="white"/>
<path d="M57.6667 140.964L49 49H153L144.333 140.964L101 152L57.6667 140.964Z" fill="#E44D26"/>
<path d="M144.333 56.3571H101V146.482L135.667 137.286L144.333 56.3571Z" fill="#F16529"/>
<path d="M72.8333 102.339L68.5 67.3929H135.667L133.5 78.4286H81.5L83.6667 91.3036H131.333L127 126.25L101 133.607L75 126.25L72.8333 107.857H85.8333L88 117.054L101 120.732L114 117.054L116.167 102.339H72.8333Z" fill="white"/>
</svg>
